<?xml version="1.0" standalone="no"?>
<!DOCTYPE svg PUBLIC "-//W3C//DTD SVG 20010904//EN"
 "http://www.w3.org/TR/2001/REC-SVG-20010904/DTD/svg10.dtd">
<svg version="1.0" xmlns="http://www.w3.org/2000/svg"
 width="1058.000000pt" height="1280.000000pt" viewBox="0 0 1058.000000 1280.000000"
 preserveAspectRatio="xMidYMid meet">
<metadata>
Created by potrace 1.15, written by Peter Selinger 2001-2017
</metadata>
<g transform="translate(0.000000,1280.000000) scale(0.100000,-0.100000)"
fill="#000000" stroke="none">
<path d="M5125 12131 c-280 -46 -538 -199 -706 -420 -71 -94 -155 -267 -186
-386 -23 -86 -26 -121 -27 -255 -1 -175 12 -252 67 -400 61 -162 168 -314 304
-431 l63 -54 0 -367 0 -368 40 0 40 0 0 -230 0 -230 -40 0 c-36 0 -40 -2 -40
-25 l0 -25 -867 0 -868 0 -45 57 c-208 262 -616 234 -790 -54 -176 -290 1
-666 342 -723 163 -28 359 49 450 176 l31 44 874 0 c857 0 873 0 873 -19 0
-16 8 -20 38 -23 l37 -3 3 -2015 c2 -1400 0 -2061 -8 -2165 -20 -276 -63 -476
-265 -1240 -30 -115 -65 -271 -77 -345 -12 -74 -22 -136 -23 -137 0 -1 -33 11
-72 27 -40 16 -118 40 -175 54 -324 80 -809 286 -1139 485 -278 166 -486 330
-704 553 -158 161 -242 263 -350 423 -205 307 -322 590 -400 971 -4 19 2 21
139 32 79 6 159 17 178 25 68 28 96 114 77 236 -23 157 -148 454 -304 727
-128 223 -341 524 -370 524 -20 0 -107 -102 -184 -215 -201 -296 -355 -625
-458 -980 -50 -174 -39 -235 49 -281 40 -21 161 -44 231 -44 34 0 68 -4 75 -9
8 -5 22 -57 33 -122 161 -960 730 -1937 1524 -2618 575 -493 1240 -860 2069
-1141 268 -90 340 -121 436 -185 78 -52 136 -113 181 -191 39 -70 74 -97 113
-90 40 8 48 17 94 94 69 116 188 212 346 279 33 14 156 57 271 95 1164 387
2065 978 2702 1775 480 601 804 1345 898 2063 l6 46 145 11 c214 17 252 43
262 172 6 91 -14 174 -85 356 -93 236 -211 457 -378 710 -99 148 -178 251
-208 269 -16 9 -25 4 -58 -34 -220 -248 -477 -748 -588 -1144 -48 -171 -38
-251 38 -291 41 -21 161 -45 225 -45 30 0 68 -3 86 -6 l32 -7 -6 -52 c-9 -82
-69 -309 -111 -420 -89 -240 -258 -535 -425 -740 -91 -113 -288 -313 -400
-407 -230 -193 -473 -350 -775 -498 -234 -115 -418 -189 -657 -266 -213 -67
-457 -148 -480 -158 -16 -7 -18 -2 -18 34 0 107 -35 292 -141 736 -110 465
-149 678 -169 920 -6 73 -10 917 -10 2177 l0 2057 25 0 c18 0 25 5 25 20 0 20
7 20 846 20 l846 0 63 -68 c261 -281 709 -173 819 197 77 261 -105 551 -379
602 -168 32 -361 -42 -465 -176 l-42 -55 -844 0 -844 0 0 25 c0 20 -5 25 -25
25 l-25 0 0 230 0 230 25 0 25 0 0 373 0 372 66 59 c578 517 435 1456 -272
1787 -134 64 -254 90 -419 94 -77 2 -162 0 -190 -4z m336 -416 c182 -47 351
-186 432 -356 59 -124 72 -181 71 -314 -3 -187 -66 -337 -199 -470 -78 -78
-151 -125 -253 -163 -90 -34 -293 -43 -392 -17 -196 50 -357 180 -445 360 -51
103 -69 183 -69 305 0 188 64 340 199 476 68 68 97 89 176 127 52 25 119 50
149 56 30 6 64 13 75 15 38 9 191 -3 256 -19z"/>
</g>
</svg>
